<svg xmlns="http://www.w3.org/2000/svg" width="48" height="48" viewBox="0 0 24 24" fill="none" stroke="#2563eb" stroke-width="2" stroke-linecap="round" stroke-linejoin="round">
  <path d="M18.4 4.2C17.2 3 15.2 3 14 4.2L10.5 7.7 7 4.2C5.8 3 3.8 3 2.6 4.2 1.4 5.4 1.4 7.4 2.6 8.6L6.1 12.1 2.6 15.6C1.4 16.8 1.4 18.8 2.6 20 3.8 21.2 5.8 21.2 7 20L10.5 16.5 14 20C15.2 21.2 17.2 21.2 18.4 20 19.6 18.8 19.6 16.8 18.4 15.6L14.9 12.1 18.4 8.6C19.6 7.4 19.6 5.4 18.4 4.2Z"/>
  <circle cx="4.2" cy="4.2" r="1.5" fill="#2563eb" stroke="none"/>
  <circle cx="19.8" cy="4.2" r="1.5" fill="#2563eb" stroke="none"/>
  <circle cx="4.2" cy="19.8" r="1.5" fill="#2563eb" stroke="none"/>
  <circle cx="19.8" cy="19.8" r="1.5" fill="#2563eb" stroke="none"/>
</svg>
